<svg width="30" height="29" viewBox="0 0 30 29" fill="none" xmlns="http://www.w3.org/2000/svg">
<path fill-rule="evenodd" clip-rule="evenodd" d="M15 1.30625C7.43125 1.30625 1.30375 7.4025 1.30375 14.91C1.30375 20.4225 4.6075 25.1663 9.3625 27.3C9.86 27.5238 10.3463 27.435 10.7263 27.15C10.9364 26.9864 11.1058 26.7763 11.2212 26.5362C11.3365 26.2961 11.3948 26.0326 11.3912 25.7663V25.0538L9.695 24.8238C9.68244 24.8221 9.66993 24.82 9.6575 24.8175C8.7225 24.635 8.09125 24.3063 7.62875 23.8325C7.24 23.4338 7.0025 22.9563 6.80125 22.5513L6.73125 22.41C6.54524 22.022 6.34213 21.6425 6.1225 21.2725C5.95375 21.005 5.8225 20.8675 5.6925 20.7813C5.3625 20.5625 5.045 20.1913 5.045 19.7275C5.04387 19.594 5.07245 19.462 5.12866 19.3409C5.18487 19.2198 5.26731 19.1128 5.37 19.0275C5.56382 18.874 5.80537 18.7935 6.0525 18.8C6.33 18.8 6.59125 18.885 6.80875 18.9825C7.03125 19.0825 7.2525 19.215 7.45875 19.3525C7.96125 19.6875 8.45625 20.0838 8.875 20.5725C9.31125 21.08 9.62 21.4025 10.085 21.4688C10.4675 21.5238 10.8575 21.525 11.1612 21.5113C11.2035 21.2708 11.2731 21.0359 11.3688 20.8113C10.9978 20.7247 10.6318 20.6179 10.2725 20.4913C9.455 20.2013 8.54375 19.75 7.93125 19.0663C7.25875 18.3138 6.8425 17.6425 6.61 16.8575C6.38375 16.0925 6.34625 15.2638 6.34625 14.2438C6.34625 12.6813 7.0225 11.365 7.53 10.6663C7.33502 10.0545 7.19488 9.4266 7.11125 8.79C7.05586 8.38854 7.05628 7.98135 7.1125 7.58C7.175 7.21375 7.33125 6.76375 7.7425 6.4925C8.13875 6.22875 8.60375 6.24 8.96625 6.3075C9.3425 6.37875 9.73375 6.535 10.0937 6.71375C10.68 7.00375 11.2625 7.39125 11.6988 7.72C12.4513 7.49875 13.7825 7.21375 14.9863 7.1875H15.0137C16.2187 7.21375 17.49 7.49875 18.2238 7.71875C18.6613 7.39125 19.2425 7.0025 19.8275 6.71375C20.1875 6.535 20.5775 6.37875 20.955 6.3075C21.3175 6.24 21.7825 6.22875 22.18 6.49125C22.59 6.76375 22.7475 7.21375 22.8087 7.58C22.8725 7.96125 22.8575 8.3875 22.8087 8.79C22.7255 9.42656 22.5858 10.0544 22.3913 10.6663C22.8988 11.3663 23.575 12.6825 23.575 14.2438C23.575 15.2638 23.5375 16.0925 23.3125 16.8563C23.0787 17.6438 22.6625 18.3138 21.99 19.0663C21.3775 19.75 20.4662 20.2013 19.6487 20.4913C19.2148 20.6438 18.7714 20.7678 18.3212 20.8625C18.475 21.3275 18.53 21.7038 18.53 21.92V25.7825C18.53 26.37 18.8038 26.8713 19.1925 27.1638C19.57 27.45 20.055 27.5388 20.5525 27.3213C25.3525 25.2063 28.695 20.45 28.695 14.9088C28.695 7.4025 22.57 1.30625 15 1.30625ZM11.845 22.7625C11.52 22.8088 11.8438 22.7625 11.8438 22.7625H11.84L11.83 22.765L11.7938 22.77C11.6081 22.7918 11.4217 22.8072 11.235 22.8163C10.7901 22.8394 10.3441 22.8214 9.9025 22.7625C8.91375 22.6225 8.3125 21.9225 7.92375 21.4675L7.88625 21.425C7.75915 21.2776 7.62261 21.1385 7.4775 21.0088C7.60625 21.2463 7.74 21.5113 7.88375 21.7963L7.89625 21.8213L7.96 21.9513C8.17875 22.3863 8.3225 22.6763 8.56125 22.9188C8.79375 23.1563 9.15625 23.3863 9.88875 23.5313L12.1312 23.835C12.2879 23.8562 12.4315 23.9335 12.5354 24.0526C12.6393 24.1717 12.6965 24.3245 12.6962 24.4825V25.7663C12.6962 26.7663 12.2275 27.6575 11.5087 28.1975C11.1314 28.4858 10.6825 28.6657 10.2104 28.7177C9.73836 28.7697 9.26106 28.6918 8.83 28.4925C3.6275 26.1588 0 20.9625 0 14.91C0 6.67 6.72125 0 15 0C23.2788 0 30 6.67 30 14.91C30 20.9938 26.3263 26.2038 21.0788 28.5175C20.6473 28.713 20.1709 28.7876 19.7004 28.7332C19.2298 28.6788 18.7829 28.4975 18.4075 28.2088C18.0363 27.923 17.7363 27.5551 17.5312 27.1339C17.326 26.7127 17.2212 26.2497 17.225 25.7813V21.9188C17.225 21.8313 17.1638 21.3263 16.8225 20.6475C16.7754 20.5534 16.7517 20.4493 16.7533 20.3441C16.755 20.2388 16.782 20.1355 16.832 20.043C16.882 19.9504 16.9536 19.8712 17.0408 19.8121C17.1279 19.7531 17.228 19.7159 17.3325 19.7038C17.9733 19.6234 18.6037 19.4742 19.2125 19.2588C19.955 18.9963 20.6212 18.6363 21.0175 18.1938C21.6062 17.5363 21.9 17.0313 22.0613 16.485C22.2288 15.9188 22.2712 15.26 22.2712 14.2438C22.2712 12.8175 21.5212 11.6188 21.1762 11.2325C21.0979 11.1452 21.0445 11.0385 21.0217 10.9234C20.9988 10.8084 21.0073 10.6894 21.0462 10.5788C21.2684 9.94896 21.4255 9.29806 21.515 8.63625C21.555 8.2925 21.5575 8.005 21.5225 7.7975C21.5147 7.72163 21.4917 7.64811 21.455 7.58125C21.3689 7.56636 21.2807 7.5702 21.1963 7.5925C20.9838 7.6325 20.7125 7.7325 20.405 7.885C19.7925 8.1875 19.155 8.635 18.76 8.955C18.6729 9.02567 18.569 9.0726 18.4584 9.09122C18.3477 9.10984 18.2342 9.09951 18.1288 9.06125C17.1167 8.73019 16.0639 8.53966 15 8.495C13.7413 8.525 12.2888 8.8825 11.7925 9.06125C11.6871 9.09951 11.5735 9.10984 11.4629 9.09122C11.3523 9.0726 11.2484 9.02567 11.1612 8.955C10.6504 8.54375 10.0993 8.18525 9.51625 7.885C9.26589 7.75353 8.99949 7.6552 8.72375 7.5925C8.63971 7.57038 8.5519 7.56654 8.46625 7.58125C8.42951 7.64809 8.40655 7.72163 8.39875 7.7975C8.36375 8.005 8.36625 8.2925 8.40625 8.63625C8.49633 9.29795 8.65339 9.94879 8.875 10.5788C8.95375 10.8038 8.905 11.0538 8.745 11.2325C8.4 11.6188 7.65 12.8175 7.65 14.2438C7.65 15.2588 7.6925 15.9188 7.86 16.485C8.0225 17.0313 8.315 17.535 8.9025 18.1938C9.3 18.6363 9.965 18.9963 10.7088 19.2588C11.3172 19.4741 11.9471 19.6233 12.5875 19.7038C12.7193 19.7179 12.8436 19.7718 12.9439 19.8583C13.0443 19.9449 13.1159 20.0599 13.1493 20.1881C13.1827 20.3164 13.1763 20.4517 13.1308 20.5762C13.0854 20.7007 13.0031 20.8084 12.895 20.885C12.6887 21.0325 12.5525 21.2975 12.4762 21.6038C12.4369 21.7614 12.4134 21.9226 12.4063 22.085V22.1088C12.4078 22.2672 12.3518 22.4209 12.2486 22.5412C12.1453 22.6614 12.0019 22.7401 11.845 22.7625V22.7625Z" fill="#F4F4F4"/>
</svg>
